<mxfile host="app.diagrams.net" modified="2024-06-27T16:11:01.742Z" agent="Mozilla/5.0 (Windows NT 10.0; Win64; x64; rv:127.0) Gecko/20100101 Firefox/127.0" etag="MFzcceX3uU9I69tRVqk7" version="24.6.3" type="device">
  <diagram name="Page-1" id="kmQE4XQhREfcFG4yCGlm">
    <mxGraphModel dx="4200" dy="2312" grid="1" gridSize="10" guides="1" tooltips="1" connect="1" arrows="1" fold="1" page="1" pageScale="1" pageWidth="850" pageHeight="1100" math="0" shadow="0">
      <root>
        <mxCell id="0" />
        <mxCell id="1" parent="0" />
        <mxCell id="CopH2fiBK3AV8m-1ZWCa-16" style="edgeStyle=orthogonalEdgeStyle;rounded=0;orthogonalLoop=1;jettySize=auto;html=1;exitX=0.25;exitY=1;exitDx=0;exitDy=0;endArrow=none;endFill=0;" edge="1" parent="1" source="CopH2fiBK3AV8m-1ZWCa-1">
          <mxGeometry relative="1" as="geometry">
            <mxPoint x="390" y="830" as="targetPoint" />
          </mxGeometry>
        </mxCell>
        <mxCell id="CopH2fiBK3AV8m-1ZWCa-1" value="&lt;div&gt;root&lt;/div&gt;" style="rounded=0;whiteSpace=wrap;html=1;" vertex="1" parent="1">
          <mxGeometry x="360" y="280" width="120" height="60" as="geometry" />
        </mxCell>
        <mxCell id="CopH2fiBK3AV8m-1ZWCa-17" style="edgeStyle=orthogonalEdgeStyle;rounded=0;orthogonalLoop=1;jettySize=auto;html=1;exitX=0;exitY=0.75;exitDx=0;exitDy=0;endArrow=none;endFill=0;" edge="1" parent="1" source="CopH2fiBK3AV8m-1ZWCa-2">
          <mxGeometry relative="1" as="geometry">
            <mxPoint x="390" y="395" as="targetPoint" />
          </mxGeometry>
        </mxCell>
        <mxCell id="CopH2fiBK3AV8m-1ZWCa-18" style="edgeStyle=orthogonalEdgeStyle;rounded=0;orthogonalLoop=1;jettySize=auto;html=1;exitX=0.25;exitY=1;exitDx=0;exitDy=0;endArrow=none;endFill=0;" edge="1" parent="1" source="CopH2fiBK3AV8m-1ZWCa-2">
          <mxGeometry relative="1" as="geometry">
            <mxPoint x="430" y="830" as="targetPoint" />
          </mxGeometry>
        </mxCell>
        <mxCell id="CopH2fiBK3AV8m-1ZWCa-2" value="&lt;div&gt;vbox&lt;/div&gt;" style="rounded=0;whiteSpace=wrap;html=1;" vertex="1" parent="1">
          <mxGeometry x="400" y="350" width="120" height="60" as="geometry" />
        </mxCell>
        <mxCell id="CopH2fiBK3AV8m-1ZWCa-19" style="edgeStyle=orthogonalEdgeStyle;rounded=0;orthogonalLoop=1;jettySize=auto;html=1;exitX=0;exitY=0.75;exitDx=0;exitDy=0;endArrow=none;endFill=0;" edge="1" parent="1" source="CopH2fiBK3AV8m-1ZWCa-3">
          <mxGeometry relative="1" as="geometry">
            <mxPoint x="430" y="460" as="targetPoint" />
          </mxGeometry>
        </mxCell>
        <mxCell id="CopH2fiBK3AV8m-1ZWCa-20" style="edgeStyle=orthogonalEdgeStyle;rounded=0;orthogonalLoop=1;jettySize=auto;html=1;exitX=0.25;exitY=1;exitDx=0;exitDy=0;endArrow=none;endFill=0;" edge="1" parent="1" source="CopH2fiBK3AV8m-1ZWCa-3">
          <mxGeometry relative="1" as="geometry">
            <mxPoint x="470" y="540" as="targetPoint" />
          </mxGeometry>
        </mxCell>
        <mxCell id="CopH2fiBK3AV8m-1ZWCa-3" value="left side" style="rounded=0;whiteSpace=wrap;html=1;" vertex="1" parent="1">
          <mxGeometry x="440" y="420" width="120" height="60" as="geometry" />
        </mxCell>
        <mxCell id="CopH2fiBK3AV8m-1ZWCa-22" style="edgeStyle=orthogonalEdgeStyle;rounded=0;orthogonalLoop=1;jettySize=auto;html=1;exitX=0;exitY=0.75;exitDx=0;exitDy=0;endArrow=none;endFill=0;" edge="1" parent="1" source="CopH2fiBK3AV8m-1ZWCa-4">
          <mxGeometry relative="1" as="geometry">
            <mxPoint x="420" y="605" as="targetPoint" />
          </mxGeometry>
        </mxCell>
        <mxCell id="CopH2fiBK3AV8m-1ZWCa-23" style="edgeStyle=orthogonalEdgeStyle;rounded=0;orthogonalLoop=1;jettySize=auto;html=1;exitX=0.25;exitY=1;exitDx=0;exitDy=0;endArrow=none;endFill=0;" edge="1" parent="1" source="CopH2fiBK3AV8m-1ZWCa-4">
          <mxGeometry relative="1" as="geometry">
            <mxPoint x="470" y="690" as="targetPoint" />
          </mxGeometry>
        </mxCell>
        <mxCell id="CopH2fiBK3AV8m-1ZWCa-4" value="&lt;div&gt;SubViewPort&lt;/div&gt;" style="rounded=0;whiteSpace=wrap;html=1;" vertex="1" parent="1">
          <mxGeometry x="440" y="560" width="120" height="60" as="geometry" />
        </mxCell>
        <mxCell id="CopH2fiBK3AV8m-1ZWCa-24" style="edgeStyle=orthogonalEdgeStyle;rounded=0;orthogonalLoop=1;jettySize=auto;html=1;exitX=0;exitY=0.75;exitDx=0;exitDy=0;endArrow=none;endFill=0;" edge="1" parent="1" source="CopH2fiBK3AV8m-1ZWCa-5">
          <mxGeometry relative="1" as="geometry">
            <mxPoint x="460" y="675" as="targetPoint" />
          </mxGeometry>
        </mxCell>
        <mxCell id="CopH2fiBK3AV8m-1ZWCa-5" value="GameScene" style="rounded=0;whiteSpace=wrap;html=1;" vertex="1" parent="1">
          <mxGeometry x="480" y="630" width="120" height="60" as="geometry" />
        </mxCell>
        <mxCell id="CopH2fiBK3AV8m-1ZWCa-25" style="edgeStyle=orthogonalEdgeStyle;rounded=0;orthogonalLoop=1;jettySize=auto;html=1;exitX=0;exitY=0.75;exitDx=0;exitDy=0;endArrow=none;endFill=0;" edge="1" parent="1" source="CopH2fiBK3AV8m-1ZWCa-6">
          <mxGeometry relative="1" as="geometry">
            <mxPoint x="420" y="745" as="targetPoint" />
          </mxGeometry>
        </mxCell>
        <mxCell id="CopH2fiBK3AV8m-1ZWCa-28" style="edgeStyle=orthogonalEdgeStyle;rounded=0;orthogonalLoop=1;jettySize=auto;html=1;exitX=0.25;exitY=1;exitDx=0;exitDy=0;endArrow=none;endFill=0;" edge="1" parent="1" source="CopH2fiBK3AV8m-1ZWCa-6">
          <mxGeometry relative="1" as="geometry">
            <mxPoint x="470" y="830" as="targetPoint" />
          </mxGeometry>
        </mxCell>
        <mxCell id="CopH2fiBK3AV8m-1ZWCa-6" value="right side" style="rounded=0;whiteSpace=wrap;html=1;" vertex="1" parent="1">
          <mxGeometry x="440" y="700" width="120" height="60" as="geometry" />
        </mxCell>
        <mxCell id="CopH2fiBK3AV8m-1ZWCa-21" style="edgeStyle=orthogonalEdgeStyle;rounded=0;orthogonalLoop=1;jettySize=auto;html=1;exitX=0;exitY=0.75;exitDx=0;exitDy=0;endArrow=none;endFill=0;" edge="1" parent="1" source="CopH2fiBK3AV8m-1ZWCa-7">
          <mxGeometry relative="1" as="geometry">
            <mxPoint x="470" y="535" as="targetPoint" />
          </mxGeometry>
        </mxCell>
        <mxCell id="CopH2fiBK3AV8m-1ZWCa-7" value="left component" style="rounded=0;whiteSpace=wrap;html=1;" vertex="1" parent="1">
          <mxGeometry x="480" y="490" width="120" height="60" as="geometry" />
        </mxCell>
        <mxCell id="CopH2fiBK3AV8m-1ZWCa-27" style="edgeStyle=orthogonalEdgeStyle;rounded=0;orthogonalLoop=1;jettySize=auto;html=1;exitX=0;exitY=0.75;exitDx=0;exitDy=0;endArrow=none;endFill=0;" edge="1" parent="1" source="CopH2fiBK3AV8m-1ZWCa-8">
          <mxGeometry relative="1" as="geometry">
            <mxPoint x="460" y="815" as="targetPoint" />
          </mxGeometry>
        </mxCell>
        <mxCell id="CopH2fiBK3AV8m-1ZWCa-8" value="right component" style="rounded=0;whiteSpace=wrap;html=1;" vertex="1" parent="1">
          <mxGeometry x="480" y="770" width="120" height="60" as="geometry" />
        </mxCell>
      </root>
    </mxGraphModel>
  </diagram>
</mxfile>
